<?xml version="1.0" encoding="UTF-8" standalone="no"?>
<!-- Created with Inkscape (http://www.inkscape.org/) -->

<svg
   width="99.999985mm"
   height="100.00006mm"
   viewBox="0 0 99.999985 100.00006"
   version="1.1"
   id="svg1"
   xml:space="preserve"
   xmlns="http://www.w3.org/2000/svg"
   xmlns:svg="http://www.w3.org/2000/svg"><defs
     id="defs1"><linearGradient
       id="swatch203"><stop
         style="stop-color:#000000;stop-opacity:1;"
         offset="0"
         id="stop203" /></linearGradient></defs><g
     id="layer1"
     transform="translate(189.11115,-201.71146)"><rect
       style="opacity:1;fill:none;fill-opacity:1;stroke:none;stroke-width:1.16246;stroke-linejoin:round;stroke-dasharray:none;stroke-opacity:1;paint-order:normal"
       id="rect278"
       width="99.999992"
       height="100"
       x="-189.11115"
       y="201.7115" /><rect
       style="opacity:1;fill:none;fill-opacity:1;stroke:#ff0000;stroke-width:1.06918;stroke-linejoin:round;stroke-dasharray:none;stroke-opacity:1;paint-order:normal"
       id="rect279"
       width="111.28812"
       height="111.55269"
       x="-195.36884"
       y="195.32156" /><g
       id="g293"
       transform="translate(0.57446167,0.57450708)"><path
         style="fill:#e6e6e6;fill-opacity:1;stroke:none;stroke-width:5.3866;stroke-linecap:round"
         d="m -173.55133,227.29162 33.91658,-18.25011 34.04055,18.21192 -1.34262,26.24891 -14.11709,25.55504 -18.34192,16.79624 -18.65106,-16.79624 -14.01405,-27.3068 -3.50352,-23.49414 z"
         id="path279" /><path
         d="m -139.68579,201.13696 c -0.98149,0.0273 -1.96908,0.5787 -2.87014,1.24777 -0.72201,0.53614 -1.3886,1.14829 -1.95251,1.62634 -10.16147,8.61434 -20.89314,14.5545 -29.05601,16.45064 -0.24325,0.0565 -0.48377,0.10949 -0.72238,0.15882 -0.66738,0.13785 -1.42055,0.26659 -1.9582,0.33984 -0.17922,0.0245 -0.62948,0.0643 -0.56128,0.0643 -0.70432,0 -1.94425,0.19982 -2.83029,1.04799 -0.0191,0.0354 -0.0376,0.0713 -0.0552,0.10762 -0.27916,0.2742 -0.49138,0.58771 -0.65292,0.9091 -0.0214,0.0487 -0.0414,0.0983 -0.0609,0.14914 -0.22602,0.58899 -0.22051,1.07933 -0.22826,1.2586 -0.0736,1.69927 0.23333,6.10124 0.58632,9.59293 0.31015,1.98829 0.62369,3.77019 0.78385,4.81354 0.25081,1.63387 1.11805,6.27589 1.84607,9.49217 -0.65239,0.19636 -1.31398,0.5387 -1.8028,1.12768 -0.47736,0.57519 -0.76985,1.60577 -0.81118,1.72766 -0.18288,0.53928 -7.88784,25.02597 -8.01498,27.24695 -7.2e-4,0.0276 -9.1e-4,0.0554 -10e-4,0.0831 0.01,0.96391 0.44225,1.97344 1.22844,2.65724 0.0253,0.0196 0.0513,0.039 0.0774,0.0581 0.39444,0.28838 0.9037,0.46295 1.10149,0.5163 0.64487,0.17398 2.04131,0.2702 3.84525,0.32334 2.49255,0.0426 6.02136,0.0638 9.32367,0.0638 h 10.55725 l 1.16182,1.48915 c 2.22326,2.85194 6.0839,6.69486 9.39825,9.62196 1.81017,1.57392 3.6196,3.07023 5.41922,4.37124 1.96336,1.39983 3.96052,2.74314 5.09646,3.19232 0.17938,0.0709 0.59427,0.23946 1.15271,0.26243 0.55846,-0.0229 0.97278,-0.19149 1.15217,-0.26243 1.13556,-0.44904 3.13192,-1.79181 5.09475,-3.19119 1.80126,-1.30211 3.61254,-2.79972 5.42433,-4.37522 3.31376,-2.92694 7.17227,-6.76805 9.39483,-9.61911 l 1.16184,-1.48915 h 0.12238 10.43485 c 3.30232,0 6.83114,-0.021 9.323677,-0.0638 1.803944,-0.0531 3.200378,-0.14936 3.845263,-0.32334 0.197774,-0.0533 0.707046,-0.22792 1.101481,-0.5163 0.02611,-0.0191 0.0521,-0.0385 0.07744,-0.0581 0.786193,-0.6838 1.219557,-1.69333 1.229008,-2.65724 -2.31e-4,-0.0276 -9.91e-4,-0.0555 -0.0022,-0.0831 -0.127131,-2.22098 -7.832109,-26.70767 -8.014979,-27.24695 -0.04131,-0.12189 -0.333254,-1.15247 -0.81062,-1.72766 -0.48881,-0.58898 -1.15098,-0.93132 -1.80337,-1.12768 0.72803,-3.21628 1.59527,-7.8583 1.84607,-9.49217 0.160169,-1.04335 0.473705,-2.82525 0.78386,-4.81354 0.352983,-3.49169 0.659855,-7.89366 0.586315,-9.59293 -0.0077,-0.17927 -0.0011,-0.66961 -0.227692,-1.2586 -0.0195,-0.0509 -0.04021,-0.10047 -0.06147,-0.14914 -0.161554,-0.32139 -0.373769,-0.6349 -0.652926,-0.9091 -0.01762,-0.0363 -0.03569,-0.0723 -0.05464,-0.10762 -0.886037,-0.84817 -2.126537,-1.04799 -2.830867,-1.04799 0.0682,0 -0.38206,-0.0399 -0.56127,-0.0643 -0.53765,-0.0733 -1.29026,-0.20199 -1.95764,-0.33984 -0.2386,-0.0492 -0.47969,-0.10234 -0.72294,-0.15882 -8.16287,-1.89614 -18.89454,-7.8363 -29.05602,-16.45064 -0.56391,-0.47805 -1.23049,-1.0902 -1.95251,-1.62634 -0.90105,-0.66907 -1.88807,-1.22041 -2.86957,-1.24777 z"
         style="fill:#ffffff;stroke:none;stroke-width:1.10156;paint-order:stroke markers fill"
         id="path280" /><path
         style="fill:#e6e6e6;fill-opacity:1;stroke-width:1.03609"
         d="m -142.37427,294.75073 c -5.3997,-3.65872 -11.69444,-9.51634 -15.21144,-14.15509 l -1.50491,-1.9849 -12.75274,-27.02476 c -0.0376,-0.0795 -0.23885,-1.10568 -0.5308,-2.26159 -0.71071,-2.81403 -1.53344,-7.19113 -2.04614,-10.88582 -0.51866,-3.73776 -1.0358,-11.19186 -0.81615,-11.76425 0.0951,-0.24791 0.49481,-0.42262 0.9668,-0.42262 0.44254,0 1.74516,-0.19427 2.8947,-0.43171 8.46437,-1.74837 19.0819,-7.64175 29.1606,-16.18591 2.40786,-2.04126 2.81229,-2.28975 3.21607,-1.97598 0.25401,0.19739 1.26367,1.05828 2.24371,1.91305 0.98001,0.8548 3.40544,2.76799 5.38984,4.25153 8.91942,6.66823 17.59752,10.91723 24.76458,12.12531 l 2.04597,0.34188 0.87257,0.16395 c 0.48823,0.0916 -0.38272,9.55387 -1.0088,13.63229 -0.50598,3.29629 -1.86472,10.17186 -2.3326,11.18005 l -12.68997,27.34458 -1.86988,2.39865 c -2.43969,3.12956 -7.54281,8.23146 -10.63701,10.63445 -3.13961,2.43828 -6.70297,4.78641 -7.25685,4.78202 -0.23671,-0.002 -1.54063,-0.75568 -2.89758,-1.67513 z"
         id="path281" /><path
         style="fill:#000000;stroke-width:1.10156"
         d="m -142.71918,296.77567 c -5.74092,-3.88993 -12.43343,-10.11769 -16.17268,-15.04958 l -1.6,-2.11032 h -11.96977 c -9.25556,0 -12.08527,-0.0845 -12.47916,-0.37247 -0.47367,-0.34635 -0.22306,-1.33061 3.57395,-14.03709 2.24584,-7.51554 4.25336,-13.77248 4.46118,-13.90431 0.20781,-0.13183 0.93525,-0.24169 1.61651,-0.24414 0.68127,-0.002 1.23868,-0.081 1.23868,-0.1745 0,-0.0935 -0.25395,-1.17554 -0.56433,-2.40449 -0.75563,-2.99185 -1.63035,-7.64556 -2.17545,-11.57371 -0.55144,-3.97396 -1.10125,-11.8991 -0.86772,-12.50766 0.10112,-0.26357 0.52607,-0.44932 1.02789,-0.44932 0.47051,0 1.85544,-0.20655 3.07763,-0.459 8.99924,-1.85884 20.28771,-8.12463 31.00329,-17.20872 2.56002,-2.17024 2.99001,-2.43443 3.4193,-2.10085 0.27007,0.20987 1.34354,1.12516 2.38549,2.03395 1.04194,0.90881 3.62064,2.94289 5.73045,4.52019 9.48304,7.0896 18.70953,11.6071 26.32947,12.89153 l 2.17528,0.36348 0.92771,0.1743 c 0.51907,0.0975 -0.40691,10.15761 -1.07254,14.49375 -0.53797,3.50458 -2.0566,10.78329 -2.48,11.88653 -0.17029,0.44372 -0.007,0.51005 1.25702,0.51005 0.87402,0 1.58469,0.15895 1.78392,0.399 0.38334,0.46191 8.192384,26.45259 8.192384,27.26656 0,0.2987 -0.207457,0.62271 -0.461013,0.72001 -0.253568,0.0973 -5.816731,0.17691 -12.362601,0.17691 h -11.90158 l -1.98805,2.55022 c -2.59385,3.32733 -8.01945,8.75162 -11.30917,11.30646 -3.33801,2.59235 -7.12656,5.08887 -7.71543,5.0842 -0.25167,-0.002 -1.63798,-0.80344 -3.08068,-1.78098 z m 8.5151,-6.87248 c 3.38903,-2.54684 8.23825,-7.17142 10.25231,-9.77738 0.37433,-0.48434 -0.40803,-0.51004 -15.52573,-0.51004 -8.75595,0 -15.91956,0.0984 -15.91911,0.21859 4.4e-4,0.12022 1.12667,1.43255 2.50274,2.9163 2.91039,3.13812 6.95618,6.58884 10.65616,9.08884 l 2.61039,1.76377 1.66005,-1.05981 c 0.91304,-0.58289 2.60648,-1.77101 3.76319,-2.64027 z m -5.74629,-3.29253 c 0,-3.88604 0.10641,-6.12053 0.29145,-6.12053 0.18505,0 0.29146,2.23449 0.29146,6.12053 0,3.88605 -0.10641,6.12053 -0.29146,6.12053 -0.18504,0 -0.29145,-2.23448 -0.29145,-6.12053 z m 31.28238,-37.23323 c 1.30033,-4.68545 2.54037,-12.99731 2.92765,-19.62346 l 0.14614,-2.50054 -2.68473,-0.4757 c -8.39792,-1.488 -18.57583,-7.01535 -28.96341,-15.72927 l -2.39241,-2.00695 -2.12512,1.85007 c -9.54137,8.30644 -20.4187,14.2501 -29.07271,15.88607 l -2.71875,0.51397 0.18608,3.79299 c 0.2292,4.67198 1.04077,10.34392 2.26298,15.81546 l 0.92773,4.15322 h 30.52073 30.52075 z m -31.28238,-30.82124 c 0,-5.73193 0.10355,-8.88934 0.29145,-8.88934 0.18794,0 0.29146,3.15741 0.29146,8.88934 0,5.73192 -0.10354,8.88934 -0.29146,8.88934 -0.18792,0 -0.29145,-3.15742 -0.29145,-8.88934 z"
         id="path282" /><circle
         style="fill:#000000;fill-opacity:1;stroke-width:0.351266"
         id="circle282"
         cx="-139.78522"
         cy="236.96713"
         r="6.1592708" /><path
         d="m -131.46766,230.64984 a 0.28356175,0.28356175 0 0 0 -0.0744,0.01 0.28356175,0.28356175 0 0 0 -0.17434,0.13181 l -0.75629,1.31096 a 0.28356175,0.28356175 0 0 0 0.0998,0.38468 c 1.54991,0.93448 2.49723,2.61133 2.49722,4.42118 1e-5,1.80984 -0.94728,3.48563 -2.49722,4.4201 a 0.28356175,0.28356175 0 0 0 -0.0998,0.38469 l 0.75629,1.31095 a 0.28356175,0.28356175 0 0 0 0.39161,0.10156 c 2.18805,-1.30691 3.52794,-3.66859 3.52794,-6.21724 0,-2.54863 -1.33989,-4.91166 -3.52794,-6.21857 a 0.28356175,0.28356175 0 0 0 -0.14309,-0.0397 z"
         style="baseline-shift:baseline;display:inline;overflow:visible;vector-effect:none;fill:#000000;fill-opacity:1;stroke-width:0.567067;stroke-linejoin:round;enable-background:accumulate;stop-color:#000000"
         id="path283" /><path
         d="m -128.32396,227.58093 a 0.41875838,0.41875838 0 0 0 -0.10972,0.0142 0.41875838,0.41875838 0 0 0 -0.25727,0.19472 l -1.11691,1.936 a 0.41875838,0.41875838 0 0 0 0.14712,0.56809 c 2.28891,1.38002 3.6879,3.85635 3.68786,6.52909 4e-5,2.67275 -1.39893,5.14751 -3.68786,6.52753 a 0.41875838,0.41875838 0 0 0 -0.14712,0.56809 l 1.11691,1.93599 a 0.41875838,0.41875838 0 0 0 0.5783,0.1499 c 3.23126,-1.93003 5.20999,-5.41772 5.20999,-9.18149 0,-3.76377 -1.97873,-7.25345 -5.20999,-9.18348 a 0.41875838,0.41875838 0 0 0 -0.21134,-0.0586 z"
         style="baseline-shift:baseline;display:inline;overflow:visible;vector-effect:none;fill:#000000;fill-opacity:1;stroke-width:0.837435;stroke-linejoin:round;enable-background:accumulate;stop-color:#000000"
         id="path284" /><path
         d="m -124.05058,223.74342 a 0.59650614,0.59650614 0 0 0 -0.15648,0.0203 0.59650614,0.59650614 0 0 0 -0.36651,0.2774 l -1.59099,2.75775 a 0.59650614,0.59650614 0 0 0 0.20964,0.80922 c 3.26046,1.96578 5.25323,5.49325 5.25323,9.30047 0,3.80723 -1.99275,7.33244 -5.25323,9.29823 a 0.59650614,0.59650614 0 0 0 -0.20964,0.80922 l 1.59099,2.75774 a 0.59650614,0.59650614 0 0 0 0.82381,0.21352 c 4.60281,-2.74925 7.42142,-7.71733 7.42142,-13.07871 0,-5.36136 -2.81861,-10.33226 -7.42142,-13.08151 a 0.59650614,0.59650614 0 0 0 -0.30095,-0.0835 z"
         style="baseline-shift:baseline;display:inline;overflow:visible;vector-effect:none;fill:#000000;fill-opacity:1;stroke-width:1.1929;stroke-linejoin:round;enable-background:accumulate;stop-color:#000000"
         id="path285" /><path
         d="m -147.98011,230.69475 a 0.28356175,0.28356175 0 0 1 0.0744,0.01 0.28356175,0.28356175 0 0 1 0.17434,0.13181 l 0.75629,1.31096 a 0.28356175,0.28356175 0 0 1 -0.0998,0.38468 c -1.54992,0.93448 -2.49723,2.61132 -2.49722,4.42116 -1e-5,1.80986 0.94728,3.48564 2.49722,4.42011 a 0.28356175,0.28356175 0 0 1 0.0998,0.38468 l -0.75629,1.31097 a 0.28356175,0.28356175 0 0 1 -0.39161,0.10156 c -2.18805,-1.30691 -3.52794,-3.6686 -3.52794,-6.21723 0,-2.54864 1.33989,-4.91166 3.52794,-6.21857 a 0.28356175,0.28356175 0 0 1 0.14309,-0.0397 z"
         style="baseline-shift:baseline;display:inline;overflow:visible;vector-effect:none;fill:#000000;fill-opacity:1;stroke-width:0.567067;stroke-linejoin:round;enable-background:accumulate;stop-color:#000000"
         id="path286" /><path
         d="m -151.12381,227.62582 a 0.41875838,0.41875838 0 0 1 0.10972,0.0142 0.41875838,0.41875838 0 0 1 0.25728,0.19473 l 1.11691,1.93599 a 0.41875838,0.41875838 0 0 1 -0.14712,0.5681 c -2.28891,1.38001 -3.6879,3.85635 -3.68787,6.52909 -3e-5,2.67276 1.39894,5.1475 3.68787,6.52753 a 0.41875838,0.41875838 0 0 1 0.14712,0.56809 l -1.11691,1.936 a 0.41875838,0.41875838 0 0 1 -0.57831,0.14988 c -3.23126,-1.93003 -5.20998,-5.41772 -5.20998,-9.1815 0,-3.76377 1.97872,-7.25345 5.20998,-9.18346 a 0.41875838,0.41875838 0 0 1 0.21134,-0.0586 z"
         style="baseline-shift:baseline;display:inline;overflow:visible;vector-effect:none;fill:#000000;fill-opacity:1;stroke-width:0.837435;stroke-linejoin:round;enable-background:accumulate;stop-color:#000000"
         id="path287" /><path
         d="m -155.36543,223.78832 a 0.59650614,0.59650614 0 0 1 0.15648,0.0203 0.59650614,0.59650614 0 0 1 0.3665,0.27741 l 1.59099,2.75775 a 0.59650614,0.59650614 0 0 1 -0.20963,0.80921 c -3.26046,1.96579 -5.25323,5.49325 -5.25323,9.30048 0,3.80722 1.99276,7.33243 5.25323,9.29822 a 0.59650614,0.59650614 0 0 1 0.20963,0.80922 l -1.59099,2.75776 a 0.59650614,0.59650614 0 0 1 -0.82381,0.2135 c -4.6028,-2.74924 -7.42141,-7.71733 -7.42141,-13.0787 0,-5.36137 2.81861,-10.33227 7.42141,-13.08152 a 0.59650614,0.59650614 0 0 1 0.30096,-0.0835 z"
         style="baseline-shift:baseline;display:inline;overflow:visible;vector-effect:none;fill:#000000;fill-opacity:1;stroke-width:1.1929;stroke-linejoin:round;enable-background:accumulate;stop-color:#000000"
         id="path288" /><g
         id="g292"
         transform="matrix(1.1015578,0,0,1.1015578,8.8868403,-135.53156)"><path
           d="m -139.36766,357.08464 -0.38166,0.002 -1.06325,0.004 c -0.17874,-0.004 -0.19041,0.004 -0.36158,10e-4 l -2.916,0.0656 -0.31019,0.007 -3.02296,14.13129 2.93468,0.0238 c 0.46007,0.005 0.83616,-0.002 1.14453,-0.0165 l 1.75091,-7.44967 2.70812,7.47655 1.02727,0.008 1.02729,-0.008 2.70764,-7.47655 1.75091,7.44967 c 0.17184,0.008 0.36491,0.0139 0.58161,0.0165 h 0.52415 0.0388 l 2.85993,-0.0238 -2.94823,-14.13144 -0.30972,-0.007 -2.91694,-0.0656 c -0.13757,0.002 -0.11527,-0.006 -0.25786,-0.003 h -4.7e-4 c -0.0341,7.3e-4 -0.0684,0.001 -0.10278,0.002 l -1.06278,-0.004 -0.38167,-0.002 -1.50985,4.3558 z"
           style="fill:#ffffff;fill-opacity:1;stroke-width:1.02926;stroke-linecap:round"
           id="path289" /><path
           d="m -104.73766,357.13642 -2.41226,0.008 h -1.84123 l -2.45877,5.21628 -2.47323,-5.21628 h -1.82728 c -1.2751,0 -2.43241,-0.004 -2.43241,-0.004 0,0 0.73227,1.86612 1.48777,3.651 0.75552,1.78488 1.37356,3.38949 1.37356,3.56567 0,0.17616 -0.56218,1.53694 -1.24902,3.0241 -0.68682,1.48717 -1.73995,4.04206 -1.73995,4.04206 h 4.51963 l 2.3337,-6.11069 2.47323,6.11069 h 4.54912 c 0,0 -1.05288,-2.43786 -1.8955,-4.22919 -0.60028,-1.27613 -1.10496,-2.45701 -1.22267,-2.84996 -0.0179,-0.0566 -0.0258,-0.0976 -0.0258,-0.11937 0,-0.17297 0.61804,-1.74761 1.37356,-3.50005 0.62017,-1.43852 1.1481,-2.69273 1.31723,-3.17351 0.0368,-0.1049 0.15038,-0.41496 0.15038,-0.41496 z"
           style="fill:#ffffff;fill-opacity:1;stroke-width:0.924493"
           id="path290" /><path
           d="m -121.81148,365.61041 v -5.82083 h 1.45521 1.45521 v -1.32292 -1.32291 h -5.42396 -5.42396 v 1.30971 1.30971 l 1.52136,0.0793 1.52135,0.0794 0.0713,5.75469 0.0713,5.75469 h 2.37609 2.37609 z"
           style="fill:#ffffff;fill-opacity:1"
           id="path291" /><path
           d="m -159.07276,357.08764 -0.38167,0.002 -1.06326,0.004 c -0.17874,-0.004 -0.19041,0.004 -0.36157,0.001 l -2.91601,0.0656 -0.31019,0.007 -3.02295,14.13129 2.93468,0.0238 c 0.46006,0.005 0.83616,-0.002 1.14453,-0.0165 l 1.75092,-7.44967 2.70811,7.47655 1.02727,0.008 1.02729,-0.008 2.70765,-7.47655 1.7509,7.44967 c 0.17183,0.008 0.36491,0.0139 0.58161,0.0165 h 0.52415 0.0388 l 2.85994,-0.0238 -2.94823,-14.13144 -0.30972,-0.007 -2.91694,-0.0656 c -0.13757,0.002 -0.11527,-0.006 -0.25787,-0.003 h -4.7e-4 c -0.0341,7.3e-4 -0.0684,10e-4 -0.10277,0.002 l -1.06279,-0.004 -0.38166,-0.002 -1.50985,4.3558 z"
           style="fill:#ffffff;fill-opacity:1;stroke-width:1.02926;stroke-linecap:round"
           id="path292" /></g></g></g></svg>
