<?xml version="1.0" encoding="UTF-8" standalone="no"?>
<!-- Created with Inkscape (http://www.inkscape.org/) -->

<svg
   width="57.48547mm"
   height="71.82943mm"
   viewBox="0 0 57.48547 71.82943"
   version="1.1"
   id="svg1"
   xml:space="preserve"
   xmlns="http://www.w3.org/2000/svg"
   xmlns:svg="http://www.w3.org/2000/svg"><defs
   id="defs1"><linearGradient
     id="swatch203"><stop
       style="stop-color:#000000;stop-opacity:1;"
       offset="0"
       id="stop203" /></linearGradient></defs><g
   id="layer1"
   transform="translate(167.6263,-313.19898)"><rect
     style="opacity:1;fill:none;fill-opacity:1;stroke:#808080;stroke-width:0.856591;stroke-linejoin:round;stroke-dasharray:none;stroke-opacity:1;paint-order:normal"
     id="rect278"
     width="73.687759"
     height="73.687759"
     x="-175.884"
     y="312.11823" /><rect
     style="opacity:1;fill:none;fill-opacity:1;stroke:#ff0000;stroke-width:0.787855;stroke-linejoin:round;stroke-dasharray:none;stroke-opacity:1;paint-order:normal"
     id="rect279"
     width="82.005722"
     height="82.200684"
     x="-179.9339"
     y="308.15799" /><g
     id="g459"
     transform="matrix(0.87989717,0,0,0.87989717,-440.62893,-111.97565)"><path
       style="fill:#ffffff;fill-opacity:1;stroke:none;stroke-width:0.410777;stroke-linecap:round;stroke-linejoin:round;stroke-opacity:1"
       d="m 156.32422,539.64844 -0.21875,25.00781 65.33203,-0.0723 -0.46875,-24.93554 z"
       id="path442"
       transform="translate(154.16106,0.18708867)" /><path
       style="fill:#ffffff;fill-opacity:1;stroke:none;stroke-width:0.19986;stroke-linecap:round"
       id="path443"
       width="60.402634"
       height="60.402634"
       x="158.58838"
       y="501.68063"
       rx="4.6031165"
       ry="4.6031165"
       d="m 163.19141,499.40625 c -3.79974,0 -6.87696,3.07721 -6.87696,6.87695 v 51.19727 c 0,3.79974 3.07722,6.87695 6.87696,6.87695 h 51.19726 c 3.79974,0 6.875,-3.07838 6.875,-6.87695 V 506.2832 c 0,-3.79857 -3.07526,-6.87695 -6.875,-6.87695 z"
       transform="translate(154.16106,0.18708867)" /><g
       id="g445"
       transform="matrix(-1,0,0,1,533.21041,-0.29609191)"
       style="fill:#ffffff;fill-opacity:1"><path
         style="baseline-shift:baseline;display:inline;overflow:visible;vector-effect:none;fill:#ffffff;fill-opacity:1;stroke-linecap:round;enable-background:accumulate;stop-color:#000000;stop-opacity:1"
         d="m 202.49377,505.47219 8.92555,-15.56882"
         id="path444" /><path
         style="baseline-shift:baseline;display:inline;overflow:visible;vector-effect:none;fill:#ffffff;fill-opacity:1;stroke-linecap:round;enable-background:accumulate;stop-color:#000000;stop-opacity:1"
         d="m 209.10547,483.50781 c -0.49273,-0.015 -0.98229,0.0444 -1.45313,0.17188 -1.27663,0.34536 -2.36292,1.18406 -3.02148,2.33203 l -8.92578,15.57031 c -1.37292,2.39526 -0.54977,5.42714 1.8457,6.80078 2.39526,1.37292 5.4273,0.55145 6.80078,-1.84375 l 8.92578,-15.56836 c 1.37597,-2.39619 0.55176,-5.43135 -1.8457,-6.80468 -0.71271,-0.40834 -1.51233,-0.63345 -2.32617,-0.65821 z"
         id="path445" /></g><g
       id="g447"
       transform="translate(154.55613,0.03463726)"
       style="fill:#ffffff;fill-opacity:1"><path
         style="baseline-shift:baseline;display:inline;overflow:visible;vector-effect:none;fill:#ffffff;fill-opacity:1;stroke-linecap:round;enable-background:accumulate;stop-color:#000000;stop-opacity:1"
         d="m 202.49377,505.47219 8.92555,-15.56882"
         id="path446" /><path
         style="baseline-shift:baseline;display:inline;overflow:visible;vector-effect:none;fill:#ffffff;fill-opacity:1;stroke-linecap:round;enable-background:accumulate;stop-color:#000000;stop-opacity:1"
         d="m 209.10547,483.50781 c -0.49273,-0.015 -0.98229,0.0444 -1.45313,0.17188 -1.27663,0.34536 -2.36292,1.18406 -3.02148,2.33203 l -8.92578,15.57031 c -1.37292,2.39526 -0.54977,5.42714 1.8457,6.80078 2.39526,1.37292 5.4273,0.55145 6.80078,-1.84375 l 8.92578,-15.56836 c 1.37597,-2.39619 0.55176,-5.43135 -1.8457,-6.80468 -0.71271,-0.40834 -1.51233,-0.63345 -2.32617,-0.65821 z"
         id="path447" /></g><rect
       style="fill:#000000;fill-opacity:1;stroke:none;stroke-width:0.19986;stroke-linecap:round"
       id="rect447"
       width="60.402634"
       height="60.402634"
       x="312.74945"
       y="501.86774"
       rx="4.6031165"
       ry="4.6031165" /><g
       id="g449"
       style="opacity:1;fill:#000000;fill-opacity:1"
       transform="matrix(-1,0,0,1,533.60547,-0.1436405)"><path
         style="baseline-shift:baseline;display:inline;overflow:visible;vector-effect:none;fill:#000000;fill-opacity:1;stroke-linecap:round;enable-background:accumulate;stop-color:#000000;stop-opacity:1"
         d="m 200.02887,504.05907 8.92555,-15.56882"
         id="path448" /><path
         style="baseline-shift:baseline;display:inline;overflow:visible;vector-effect:none;fill:#000000;fill-opacity:1;stroke-linecap:round;enable-background:accumulate;stop-color:#000000;stop-opacity:1"
         d="m 208.39453,486.42187 a 2.14235,2.14235 0 0 0 -1.29883,1.00196 l -8.92578,15.57031 a 2.14235,2.14235 0 0 0 0.79297,2.92383 2.14235,2.14235 0 0 0 2.92383,-0.79297 l 8.92578,-15.56836 a 2.14235,2.14235 0 0 0 -0.79297,-2.92578 2.14235,2.14235 0 0 0 -1.625,-0.20899 z"
         id="path449" /></g><g
       id="g451"
       style="opacity:1;fill:#000000;fill-opacity:1"
       transform="translate(154.16106,0.18708867)"><path
         style="baseline-shift:baseline;display:inline;overflow:visible;vector-effect:none;fill:#000000;fill-opacity:1;stroke-linecap:round;enable-background:accumulate;stop-color:#000000;stop-opacity:1"
         d="m 200.02887,504.05907 8.92555,-15.56882"
         id="path450" /><path
         style="baseline-shift:baseline;display:inline;overflow:visible;vector-effect:none;fill:#000000;fill-opacity:1;stroke-linecap:round;enable-background:accumulate;stop-color:#000000;stop-opacity:1"
         d="m 208.39453,486.42187 a 2.14235,2.14235 0 0 0 -1.29883,1.00196 l -8.92578,15.57031 a 2.14235,2.14235 0 0 0 0.79297,2.92383 2.14235,2.14235 0 0 0 2.92383,-0.79297 l 8.92578,-15.56836 a 2.14235,2.14235 0 0 0 -0.79297,-2.92578 2.14235,2.14235 0 0 0 -1.625,-0.20899 z"
         id="path451" /></g><rect
       style="fill:#e6e6e6;fill-opacity:1;stroke:none;stroke-width:0.177281;stroke-linecap:round"
       id="rect451"
       width="54.802074"
       height="52.38271"
       x="315.73672"
       y="506.05722"
       rx="3.2158325"
       ry="3.5994439" /><path
       style="fill:#000000;fill-opacity:1;stroke:none;stroke-width:0.410777;stroke-linecap:round;stroke-linejoin:round;stroke-opacity:1"
       d="m 312.55963,562.56728 60.72299,-0.0661 -0.38289,-20.3925 h -60.16016 z"
       id="path452" /><g
       id="g455"
       transform="translate(3.01122)"><path
         d="m 329.00161,547.24232 -0.3098,0.002 -0.86306,0.003 c -0.14508,-0.003 -0.15455,0.003 -0.2935,8.1e-4 l -2.36695,0.0533 -0.25179,0.006 -2.45377,11.47056 2.38212,0.0193 c 0.37344,0.004 0.67872,-0.002 0.92903,-0.0134 l 1.42123,-6.047 2.19822,6.06881 0.83385,0.006 0.83386,-0.006 2.19783,-6.06881 1.42124,6.047 c 0.13948,0.006 0.2962,0.0113 0.4721,0.0134 h 0.42546 0.0315 l 2.32145,-0.0193 -2.39312,-11.47068 -0.25141,-0.006 -2.36771,-0.0533 c -0.11167,0.002 -0.0936,-0.005 -0.20931,-0.002 h -3.8e-4 c -0.0277,5.9e-4 -0.0555,8.1e-4 -0.0834,0.002 l -0.86268,-0.003 -0.3098,-0.002 -1.22557,3.53566 z"
         style="fill:#ffffff;fill-opacity:1;stroke-width:0.835464;stroke-linecap:round"
         id="path453" /><path
         d="m 357.11124,547.28435 -1.95807,0.007 h -1.49455 l -1.99581,4.23412 -2.00756,-4.23412 h -1.48322 c -1.03502,0 -1.97442,-0.003 -1.97442,-0.003 0,0 0.59439,1.51475 1.20764,2.96356 0.61327,1.44881 1.11494,2.7513 1.11494,2.89431 0,0.14299 -0.45633,1.24755 -1.01385,2.4547 -0.5575,1.20715 -1.41234,3.28099 -1.41234,3.28099 h 3.66864 l 1.8943,-4.96013 2.00755,4.96013 h 3.69258 c 0,0 -0.85463,-1.97884 -1.5386,-3.43289 -0.48725,-1.03585 -0.89691,-1.99439 -0.99246,-2.31335 -0.0145,-0.0459 -0.0209,-0.0792 -0.0209,-0.0969 0,-0.1404 0.50167,-1.41856 1.11494,-2.84104 0.5034,-1.16767 0.93193,-2.18572 1.06921,-2.57598 0.0299,-0.0851 0.12207,-0.33683 0.12207,-0.33683 z"
         style="fill:#ffffff;fill-opacity:1;stroke-width:0.750423"
         id="path454" /><path
         d="m 343.25219,554.1628 v -4.72484 h 1.18121 1.18122 v -1.07383 -1.07383 h -4.4027 -4.4027 v 1.06311 1.06311 l 1.23491,0.0644 1.2349,0.0644 0.0579,4.67116 0.0579,4.67116 h 1.9287 1.9287 z"
         style="fill:#ffffff;fill-opacity:1;stroke-width:0.811713"
         id="path455" /></g><g
       id="g458"
       transform="matrix(1.001959,0,0,1.001959,160.55897,-119.9224)"><path
         d="m 199.58944,637.95898 c -0.60226,0.0199 -1.16155,0.43178 -1.16155,0.43178 l -5.622,3.24609 -7.9161,4.57041 0.77139,0.44591 -0.77139,0.44515 7.9161,4.57041 5.622,3.24611 c 0,0 0.99439,0.73278 1.75904,0.2913 0.049,-0.0283 0.0934,-0.0583 0.13373,-0.0898 0.41452,-0.32319 0.40131,-0.78701 0.40131,-0.78701 v -7.23092 -8.13311 c -7.8e-4,-0.0714 -0.0239,-0.48178 -0.40057,-0.77586 h -7.4e-4 c -0.0403,-0.0314 -0.0848,-0.0614 -0.13373,-0.09 -0.19116,-0.11036 -0.39673,-0.14708 -0.59749,-0.14038 z"
         style="stroke:#000000;stroke-width:0.199414;stroke-linecap:round;stroke-opacity:0"
         id="path456" /><rect
         style="fill:#000000;fill-opacity:1;stroke:none;stroke-width:0.163962;stroke-linecap:round"
         id="rect456"
         width="25.125229"
         height="20.677299"
         x="167.30063"
         y="636.07739"
         ry="2.0421996"
         rx="1.5336518" /><path
         d="m 176.51397,641.09457 c -0.23283,0.13795 -0.39381,0.39468 -0.37858,0.58151 l -0.0198,4.04389 v 5.87143 c 0,0 0.0153,0.1933 0.12245,0.37843 v 1.6e-4 c 0.003,0.005 0.005,0.0108 0.007,0.0153 0.0528,0.0863 0.12661,0.16944 0.22941,0.22913 0.0829,0.048 0.16246,0.0694 0.23429,0.0749 h 1.6e-4 c 0.0121,8.1e-4 0.022,10e-4 0.0325,10e-4 0.0212,2.7e-4 0.0417,-8.3e-4 0.0613,-0.003 0.0753,-0.009 0.1375,-0.0309 0.18008,-0.0513 0.0395,-0.019 0.0622,-0.0356 0.0622,-0.0356 l 6.28216,-3.58656 2.46753,-1.42463 c 0,0 0.24608,-0.16716 0.33066,-0.44129 0.0173,-0.0565 0.0281,-0.11734 0.0281,-0.18255 4e-5,-0.0193 -7.9e-4,-0.0386 -10e-4,-0.0567 -0.001,-0.0304 -0.009,-0.0593 -0.0134,-0.0859 -0.063,-0.2498 -0.27952,-0.34449 -0.27952,-0.34449 l -3.49235,-2.039 -5.08471,-2.93566 c -0.46393,-0.19853 -0.76798,-0.0108 -0.76798,-0.0108 z"
         style="fill:#ffffff;fill-opacity:1;stroke:none;stroke-width:0.475181;stroke-linejoin:round;stroke-opacity:1"
         id="path457" /><path
         style="fill:none;fill-opacity:1;stroke:#000000;stroke-width:3.45221;stroke-linecap:round;stroke-linejoin:round;stroke-opacity:1"
         d="m 187.13485,638.58019 -7.30912,-7.30911 h -11.93932"
         id="path458" /></g></g></g>

</svg>
